solid OpenSCAD_Model
  facet normal 0 -0 -1
    outer loop
      vertex 0 0.127597 0
      vertex 0 3.85 0
      vertex 8 3.85 0
    endloop
  endfacet
  facet normal -0 0 -1
    outer loop
      vertex 0 0.127597 0
      vertex 8 3.85 0
      vertex 8 0.127597 0
    endloop
  endfacet
  facet normal 0 0 -1
    outer loop
      vertex 0 0.127597 0
      vertex 8 0.127597 0
      vertex -0.121353 0.088168 0
    endloop
  endfacet
  facet normal -0 0 -1
    outer loop
      vertex 8 0.127597 0
      vertex 8.04635 0.142658 0
      vertex 8.15 0 0
    endloop
  endfacet
  facet normal 0 0 -1
    outer loop
      vertex 8 0.127597 0
      vertex 8.15 0 0
      vertex -0.121353 0.088168 0
    endloop
  endfacet
  facet normal 0 0 -1
    outer loop
      vertex 8.15 0 0
      vertex 8.04635 -0.142658 0
      vertex 8 -0.127597 0
    endloop
  endfacet
  facet normal 0 0 -1
    outer loop
      vertex 8.15 0 0
      vertex 8 -0.127597 0
      vertex -0.121353 0.088168 0
    endloop
  endfacet
  facet normal -0 -0 -1
    outer loop
      vertex -0.121353 -0.088168 0
      vertex -0.121353 0.088168 0
      vertex 0 -0.127597 0
    endloop
  endfacet
  facet normal 0 0 -1
    outer loop
      vertex 8 -3.85 0
      vertex 0 -3.85 0
      vertex 0 -0.127597 0
    endloop
  endfacet
  facet normal 0 0 -1
    outer loop
      vertex 8 -3.85 0
      vertex 0 -0.127597 0
      vertex -0.121353 0.088168 0
    endloop
  endfacet
  facet normal 0 0 -1
    outer loop
      vertex 8 -3.85 0
      vertex -0.121353 0.088168 0
      vertex 8 -0.127597 0
    endloop
  endfacet
  facet normal -1 -0 -0
    outer loop
      vertex -0.121353 -0.088168 0
      vertex -0.121353 -0.088168 4
      vertex -0.121353 0.088168 0
    endloop
  endfacet
  facet normal -1 0 0
    outer loop
      vertex -0.121353 0.088168 0
      vertex -0.121353 -0.088168 4
      vertex -0.121353 0.088168 4
    endloop
  endfacet
  facet normal -0.309012 -0.951058 0
    outer loop
      vertex -0.121353 -0.088168 4
      vertex -0.121353 -0.088168 0
      vertex 0 -0.127597 0
    endloop
  endfacet
  facet normal -0.309012 -0.951058 -2.26347e-17
    outer loop
      vertex 0.046353 -0.142658 0.3
      vertex -0.121353 -0.088168 4
      vertex 0 -0.127597 0.3
    endloop
  endfacet
  facet normal -0.309012 -0.951058 0
    outer loop
      vertex 0 -0.127597 0.3
      vertex -0.121353 -0.088168 4
      vertex 0 -0.127597 0
    endloop
  endfacet
  facet normal -0.309012 -0.951058 1.09749e-17
    outer loop
      vertex 0 -0.127597 3.5724
      vertex -0.121353 -0.088168 4
      vertex 0.046353 -0.142658 0.3
    endloop
  endfacet
  facet normal -0.309012 -0.951058 0
    outer loop
      vertex 0.046353 -0.142658 3.55734
      vertex 0 -0.127597 3.5724
      vertex 0.046353 -0.142658 0.3
    endloop
  endfacet
  facet normal -0.309012 -0.951058 -9.99141e-16
    outer loop
      vertex 0.046353 -0.142658 3.85734
      vertex -0.121353 -0.088168 4
      vertex 0 -0.127597 3.8724
    endloop
  endfacet
  facet normal -0.309012 -0.951058 0
    outer loop
      vertex 0.046353 -0.142658 4
      vertex -0.121353 -0.088168 4
      vertex 0.046353 -0.142658 3.85734
    endloop
  endfacet
  facet normal -0.309012 -0.951058 -0
    outer loop
      vertex 0 -0.127597 3.5724
      vertex 0 -0.127597 3.8724
      vertex -0.121353 -0.088168 4
    endloop
  endfacet
  facet normal -0.309012 0.951058 0
    outer loop
      vertex -0.121353 0.088168 0
      vertex -0.121353 0.088168 4
      vertex 0 0.127597 0
    endloop
  endfacet
  facet normal -0.309012 0.951058 -1.80756e-16
    outer loop
      vertex 0 0.127597 3.8724
      vertex -0.121353 0.088168 4
      vertex 0.046353 0.142658 4
    endloop
  endfacet
  facet normal -0.309012 0.951058 0
    outer loop
      vertex 0 0.127597 0
      vertex -0.121353 0.088168 4
      vertex 0 0.127597 0.3
    endloop
  endfacet
  facet normal -0.309012 0.951058 0
    outer loop
      vertex -0.121353 0.088168 4
      vertex 0 0.127597 3.8724
      vertex 0 0.127597 3.5724
    endloop
  endfacet
  facet normal -0.309012 0.951058 0
    outer loop
      vertex 0.046353 0.142658 3.55734
      vertex 0 0.127597 0.3
      vertex 0 0.127597 3.5724
    endloop
  endfacet
  facet normal -0.309012 0.951058 0
    outer loop
      vertex 0 0.127597 0.3
      vertex 0.046353 0.142658 3.55734
      vertex 0.046353 0.142658 0.3
    endloop
  endfacet
  facet normal -0.309012 0.951058 0
    outer loop
      vertex -0.121353 0.088168 4
      vertex 0 0.127597 3.5724
      vertex 0 0.127597 0.3
    endloop
  endfacet
  facet normal -0.309012 0.951058 0
    outer loop
      vertex 0 0.127597 3.8724
      vertex 0.046353 0.142658 4
      vertex 0.046353 0.142658 3.85734
    endloop
  endfacet
  facet normal -1 -0 0
    outer loop
      vertex 0 -4 0
      vertex 0 -3.85 0.15
      vertex 0 -3.85 0
    endloop
  endfacet
  facet normal -1 0 0
    outer loop
      vertex 0 -3.85 0
      vertex 0 -3.85 0.15
      vertex 0 -3.7 0.3
    endloop
  endfacet
  facet normal -1 -0 0
    outer loop
      vertex 0 -3.7 0.3
      vertex 0 -0.127597 3.8724
      vertex 0 -3.85 0
    endloop
  endfacet
  facet normal -1 0 0
    outer loop
      vertex 0 -3.85 0
      vertex 0 -0.127597 3.8724
      vertex 0 -0.127597 3.5724
    endloop
  endfacet
  facet normal -1 0 0
    outer loop
      vertex 0 -3.85 0
      vertex 0 -0.127597 3.5724
      vertex 0 -3.4 0.3
    endloop
  endfacet
  facet normal -1 0 0
    outer loop
      vertex 0 -3.85 0
      vertex 0 -3.4 0.3
      vertex 0 -0.127597 0.3
    endloop
  endfacet
  facet normal -1 -0 0
    outer loop
      vertex 0 -3.85 0
      vertex 0 -0.127597 0.3
      vertex 0 -0.127597 0
    endloop
  endfacet
  facet normal 0 0 -1
    outer loop
      vertex 8 -3.85 0
      vertex 8 -4 0
      vertex 0 -3.85 0
    endloop
  endfacet
  facet normal 0 0 -1
    outer loop
      vertex 0 -3.85 0
      vertex 8 -4 0
      vertex 0 -4 0
    endloop
  endfacet
  facet normal 1 0 0
    outer loop
      vertex 8 -3.85 0.15
      vertex 8 -4 0
      vertex 8 -3.85 0
    endloop
  endfacet
  facet normal 1 -0 0
    outer loop
      vertex 8 -0.127597 0
      vertex 8 -3.85 0.15
      vertex 8 -3.85 0
    endloop
  endfacet
  facet normal 1 0 -0
    outer loop
      vertex 8 -3.7 0.3
      vertex 8 -3.85 0.15
      vertex 8 -0.127597 0
    endloop
  endfacet
  facet normal 1 0 0
    outer loop
      vertex 8 -0.127597 3.8724
      vertex 8 -3.7 0.3
      vertex 8 -0.127597 0
    endloop
  endfacet
  facet normal -0.309012 -0.951058 0
    outer loop
      vertex 7.87865 -0.088168 4
      vertex 7.87865 -0.088168 3.91183
      vertex 8 -0.127597 3.8724
    endloop
  endfacet
  facet normal -0.309012 -0.951058 -4.68379e-16
    outer loop
      vertex 8.04635 -0.142658 4
      vertex 7.87865 -0.088168 4
      vertex 8 -0.127597 3.8724
    endloop
  endfacet
  facet normal -0.309012 -0.951058 -0
    outer loop
      vertex 8 -0.127597 0
      vertex 8.04635 -0.142658 0
      vertex 8 -0.127597 3.8724
    endloop
  endfacet
  facet normal -0.309012 -0.951058 -0
    outer loop
      vertex 8.04635 -0.142658 0
      vertex 8.04635 -0.142658 4
      vertex 8 -0.127597 3.8724
    endloop
  endfacet
  facet normal 0.809017 -0.587785 0
    outer loop
      vertex 8.04635 -0.142658 4
      vertex 8.04635 -0.142658 0
      vertex 8.15 0 0
    endloop
  endfacet
  facet normal 0.809017 -0.587785 0
    outer loop
      vertex 8.15 0 4
      vertex 8.04635 -0.142658 4
      vertex 8.15 0 0
    endloop
  endfacet
  facet normal 0.809017 0.587785 0
    outer loop
      vertex 8.15 0 0
      vertex 8.04635 0.142658 0
      vertex 8.04635 0.142658 4
    endloop
  endfacet
  facet normal 0.809017 0.587785 -0
    outer loop
      vertex 8.15 0 4
      vertex 8.15 0 0
      vertex 8.04635 0.142658 4
    endloop
  endfacet
  facet normal -0.309012 0.951058 0
    outer loop
      vertex 7.87865 0.088168 3.91183
      vertex 7.87865 0.088168 4
      vertex 8 0.127597 3.8724
    endloop
  endfacet
  facet normal -0.309012 0.951058 -4.51891e-16
    outer loop
      vertex 8 0.127597 3.8724
      vertex 7.87865 0.088168 4
      vertex 8.04635 0.142658 4
    endloop
  endfacet
  facet normal -0.309012 0.951058 0
    outer loop
      vertex 8 0.127597 3.8724
      vertex 8.04635 0.142658 4
      vertex 8.04635 0.142658 0
    endloop
  endfacet
  facet normal -0.309012 0.951058 0
    outer loop
      vertex 8 0.127597 3.8724
      vertex 8.04635 0.142658 0
      vertex 8 0.127597 0
    endloop
  endfacet
  facet normal 1 0 -0
    outer loop
      vertex 8 0.127597 3.8724
      vertex 8 0.127597 0
      vertex 8 3.85 0
    endloop
  endfacet
  facet normal 1 -0 -0
    outer loop
      vertex 8 3.85 0.15
      vertex 8 3.7 0.3
      vertex 8 3.85 0
    endloop
  endfacet
  facet normal 1 -0 0
    outer loop
      vertex 8 4 0
      vertex 8 3.85 0.15
      vertex 8 3.85 0
    endloop
  endfacet
  facet normal 1 -0 -0
    outer loop
      vertex 8 3.7 0.3
      vertex 8 0.127597 3.8724
      vertex 8 3.85 0
    endloop
  endfacet
  facet normal 0 0 -1
    outer loop
      vertex 8 4 0
      vertex 8 3.85 0
      vertex 0 4 0
    endloop
  endfacet
  facet normal 0 0 -1
    outer loop
      vertex 0 4 0
      vertex 8 3.85 0
      vertex 0 3.85 0
    endloop
  endfacet
  facet normal -1 -0 -0
    outer loop
      vertex 0 0.127597 0
      vertex 0 0.127597 0.3
      vertex 0 3.85 0
    endloop
  endfacet
  facet normal -1 0 0
    outer loop
      vertex 0 3.85 0
      vertex 0 0.127597 0.3
      vertex 0 3.4 0.3
    endloop
  endfacet
  facet normal -1 0 0
    outer loop
      vertex 0 3.85 0
      vertex 0 3.4 0.3
      vertex 0 0.127597 3.5724
    endloop
  endfacet
  facet normal -1 0 0
    outer loop
      vertex 0 3.85 0
      vertex 0 0.127597 3.5724
      vertex 0 0.127597 3.8724
    endloop
  endfacet
  facet normal -1 0 0
    outer loop
      vertex 0 3.85 0
      vertex 0 0.127597 3.8724
      vertex 0 3.7 0.3
    endloop
  endfacet
  facet normal -1 0 0
    outer loop
      vertex 0 3.85 0.15
      vertex 0 4 0
      vertex 0 3.85 0
    endloop
  endfacet
  facet normal -1 0 0
    outer loop
      vertex 0 3.85 0.15
      vertex 0 3.85 0
      vertex 0 3.7 0.3
    endloop
  endfacet
  facet normal 0 -0 1
    outer loop
      vertex -0.121353 0.088168 4
      vertex -0.121353 -0.088168 4
      vertex 0.046353 -0.142658 4
    endloop
  endfacet
  facet normal 0 -0 1
    outer loop
      vertex 0.046353 0.142658 4
      vertex -0.121353 0.088168 4
      vertex 0.15 0 4
    endloop
  endfacet
  facet normal -0 0 1
    outer loop
      vertex 0.15 0 4
      vertex -0.121353 0.088168 4
      vertex 0.046353 -0.142658 4
    endloop
  endfacet
  facet normal 0.809017 -0.587785 0
    outer loop
      vertex 0.046353 -0.142658 4
      vertex 0.046353 -0.142658 3.85734
      vertex 0.15 -6.28037e-16 4
    endloop
  endfacet
  facet normal 0.809017 -0.587785 -3.56539e-11
    outer loop
      vertex 0.15 0 4
      vertex 0.046353 -0.142658 4
      vertex 0.15 -6.28037e-16 4
    endloop
  endfacet
  facet normal 0 -0.707107 0.707107
    outer loop
      vertex 0 -0.127597 3.8724
      vertex 0 -3.7 0.3
      vertex 8 -3.7 0.3
    endloop
  endfacet
  facet normal -3.22565e-15 -0.707107 0.707107
    outer loop
      vertex 0.046353 -0.142658 3.85734
      vertex 0 -0.127597 3.8724
      vertex 8 -3.7 0.3
    endloop
  endfacet
  facet normal 5.12062e-18 -0.707107 0.707107
    outer loop
      vertex 8 -0.127597 3.8724
      vertex 0.046353 -0.142658 3.85734
      vertex 8 -3.7 0.3
    endloop
  endfacet
  facet normal 0 -0.707107 0.707107
    outer loop
      vertex 0.15 -6.28037e-16 4
      vertex 7.87865 -0.088168 3.91183
      vertex 7.87865 -6.28037e-16 4
    endloop
  endfacet
  facet normal 2.81173e-17 -0.707107 0.707107
    outer loop
      vertex 0.15 -6.28037e-16 4
      vertex 8 -0.127597 3.8724
      vertex 7.87865 -0.088168 3.91183
    endloop
  endfacet
  facet normal 6.25405e-18 -0.707107 0.707107
    outer loop
      vertex 0.15 -6.28037e-16 4
      vertex 0.046353 -0.142658 3.85734
      vertex 8 -0.127597 3.8724
    endloop
  endfacet
  facet normal 0 0.707107 -0.707107
    outer loop
      vertex 0.046353 -0.142658 3.55734
      vertex 0.15 -6.28037e-16 3.7
      vertex 7.6 -6.28037e-16 3.7
    endloop
  endfacet
  facet normal -2.99768e-17 0.707107 -0.707107
    outer loop
      vertex 0.046353 -0.142658 3.55734
      vertex 7.6 -6.28037e-16 3.7
      vertex 7.6 -3.4 0.3
    endloop
  endfacet
  facet normal 3.7604e-15 0.707107 -0.707107
    outer loop
      vertex 0.046353 -0.142658 3.55734
      vertex 7.6 -3.4 0.3
      vertex 0 -0.127597 3.5724
    endloop
  endfacet
  facet normal 0 0.707107 -0.707107
    outer loop
      vertex 7.6 -3.4 0.3
      vertex 0 -3.4 0.3
      vertex 0 -0.127597 3.5724
    endloop
  endfacet
  facet normal 0.809017 -0.587785 0
    outer loop
      vertex 0.046353 -0.142658 3.55734
      vertex 0.046353 -0.142658 0.3
      vertex 0.15 0 0.3
    endloop
  endfacet
  facet normal 7.51536e-15 -5.56922e-15 1.09e-16
    outer loop
      vertex 0.15 -6.28037e-16 3.7
      vertex 0.046353 -0.142658 3.55734
      vertex 0.15 0 3.7
    endloop
  endfacet
  facet normal 0.809017 -0.587785 0
    outer loop
      vertex 0.15 0 3.7
      vertex 0.046353 -0.142658 3.55734
      vertex 0.15 0 0.3
    endloop
  endfacet
  facet normal 0 -0 1
    outer loop
      vertex 0 -0.127597 0.3
      vertex 0 -3.4 0.3
      vertex 7.6 -3.4 0.3
    endloop
  endfacet
  facet normal -0 -0 1
    outer loop
      vertex 0.046353 -0.142658 0.3
      vertex 0 -0.127597 0.3
      vertex 7.6 -3.4 0.3
    endloop
  endfacet
  facet normal 0 -0 1
    outer loop
      vertex 0 3.4 0.3
      vertex 0 0.127597 0.3
      vertex 7.6 3.4 0.3
    endloop
  endfacet
  facet normal 0 0 1
    outer loop
      vertex 0 0.127597 0.3
      vertex 0.046353 0.142658 0.3
      vertex 7.6 3.4 0.3
    endloop
  endfacet
  facet normal 0 0 1
    outer loop
      vertex 0.046353 0.142658 0.3
      vertex 0.15 0 0.3
      vertex 7.6 3.4 0.3
    endloop
  endfacet
  facet normal 0 0 1
    outer loop
      vertex 7.6 3.4 0.3
      vertex 0.046353 -0.142658 0.3
      vertex 7.6 -3.4 0.3
    endloop
  endfacet
  facet normal 0 -0 1
    outer loop
      vertex 0.15 0 0.3
      vertex 0.046353 -0.142658 0.3
      vertex 7.6 3.4 0.3
    endloop
  endfacet
  facet normal 0.809017 0.587785 0
    outer loop
      vertex 0.15 0 0.3
      vertex 0.046353 0.142658 0.3
      vertex 0.046353 0.142658 3.55734
    endloop
  endfacet
  facet normal 0.809017 0.587785 -0
    outer loop
      vertex 0.15 0 3.7
      vertex 0.15 0 0.3
      vertex 0.046353 0.142658 3.55734
    endloop
  endfacet
  facet normal 0 -0.707107 -0.707107
    outer loop
      vertex 7.6 3.4 0.3
      vertex 7.6 -6.28037e-16 3.7
      vertex 0 3.4 0.3
    endloop
  endfacet
  facet normal 0 -5.96093e-17 -8.43003e-17
    outer loop
      vertex 0.15 0 3.7
      vertex 7.6 -6.28037e-16 3.7
      vertex 0.15 -6.28037e-16 3.7
    endloop
  endfacet
  facet normal 0 -0.707107 -0.707107
    outer loop
      vertex 0 3.4 0.3
      vertex 7.6 -6.28037e-16 3.7
      vertex 0.15 0 3.7
    endloop
  endfacet
  facet normal 0 -0.707107 -0.707107
    outer loop
      vertex 0 3.4 0.3
      vertex 0.046353 0.142658 3.55734
      vertex 0 0.127597 3.5724
    endloop
  endfacet
  facet normal -3.14559e-16 -0.707107 -0.707107
    outer loop
      vertex 0.046353 0.142658 3.55734
      vertex 0 3.4 0.3
      vertex 0.15 0 3.7
    endloop
  endfacet
  facet normal -2.38008e-17 0.707107 0.707107
    outer loop
      vertex 0.15 0 4
      vertex 7.87865 -6.28037e-16 4
      vertex 0 3.7 0.3
    endloop
  endfacet
  facet normal 0 0.707107 0.707107
    outer loop
      vertex 0 3.7 0.3
      vertex 0 0.127597 3.8724
      vertex 0.046353 0.142658 3.85734
    endloop
  endfacet
  facet normal -7.62471e-17 0.707107 0.707107
    outer loop
      vertex 7.87865 0.088168 3.91183
      vertex 8 0.127597 3.8724
      vertex 0 3.7 0.3
    endloop
  endfacet
  facet normal 1.85505e-16 0.707107 0.707107
    outer loop
      vertex 0.15 0 4
      vertex 0 3.7 0.3
      vertex 0.046353 0.142658 3.85734
    endloop
  endfacet
  facet normal 0 1.1492e-16 8.12609e-17
    outer loop
      vertex 0.15 -6.28037e-16 4
      vertex 7.87865 -6.28037e-16 4
      vertex 0.15 0 4
    endloop
  endfacet
  facet normal 1.09611e-15 0.707107 0.707107
    outer loop
      vertex 7.87865 -6.28037e-16 4
      vertex 7.87865 0.088168 3.91183
      vertex 0 3.7 0.3
    endloop
  endfacet
  facet normal 0 0.707107 0.707107
    outer loop
      vertex 8 0.127597 3.8724
      vertex 8 3.7 0.3
      vertex 0 3.7 0.3
    endloop
  endfacet
  facet normal 0.809017 0.587785 0
    outer loop
      vertex 0.15 0 4
      vertex 0.046353 0.142658 3.85734
      vertex 0.046353 0.142658 4
    endloop
  endfacet
  facet normal 0 -0.707107 0.707107
    outer loop
      vertex 0 -3.7 0.3
      vertex 0 -3.85 0.15
      vertex 8 -3.85 0.15
    endloop
  endfacet
  facet normal 0 -0.707107 0.707107
    outer loop
      vertex 8 -3.7 0.3
      vertex 0 -3.7 0.3
      vertex 8 -3.85 0.15
    endloop
  endfacet
  facet normal 0 -0.707107 0.707107
    outer loop
      vertex 0 -3.85 0.15
      vertex 0 -4 0
      vertex 8 -4 0
    endloop
  endfacet
  facet normal 0 -0.707107 0.707107
    outer loop
      vertex 8 -3.85 0.15
      vertex 0 -3.85 0.15
      vertex 8 -4 0
    endloop
  endfacet
  facet normal 0 -0 1
    outer loop
      vertex 7.87865 0.088168 4
      vertex 7.87865 -0.088168 4
      vertex 8.04635 -0.142658 4
    endloop
  endfacet
  facet normal 0 -0 1
    outer loop
      vertex 8.04635 0.142658 4
      vertex 7.87865 0.088168 4
      vertex 8.15 0 4
    endloop
  endfacet
  facet normal -0 0 1
    outer loop
      vertex 8.15 0 4
      vertex 7.87865 0.088168 4
      vertex 8.04635 -0.142658 4
    endloop
  endfacet
  facet normal -1 0 -0
    outer loop
      vertex 7.87865 -0.088168 3.91183
      vertex 7.87865 -0.088168 4
      vertex 7.87865 -6.28037e-16 4
    endloop
  endfacet
  facet normal -1 0 -0
    outer loop
      vertex 7.87865 -6.28037e-16 4
      vertex 7.87865 -0.088168 4
      vertex 7.87865 0.088168 4
    endloop
  endfacet
  facet normal -1 -0 0
    outer loop
      vertex 7.87865 -6.28037e-16 4
      vertex 7.87865 0.088168 4
      vertex 7.87865 0.088168 3.91183
    endloop
  endfacet
  facet normal 0 0.707107 0.707107
    outer loop
      vertex 0 3.85 0.15
      vertex 0 3.7 0.3
      vertex 8 3.7 0.3
    endloop
  endfacet
  facet normal -0 0.707107 0.707107
    outer loop
      vertex 8 3.85 0.15
      vertex 0 3.85 0.15
      vertex 8 3.7 0.3
    endloop
  endfacet
  facet normal 0 0.707107 0.707107
    outer loop
      vertex 0 4 0
      vertex 0 3.85 0.15
      vertex 8 3.85 0.15
    endloop
  endfacet
  facet normal -0 0.707107 0.707107
    outer loop
      vertex 8 4 0
      vertex 0 4 0
      vertex 8 3.85 0.15
    endloop
  endfacet
  facet normal -1 0 0
    outer loop
      vertex 7.6 -6.28037e-16 3.7
      vertex 7.6 3.4 0.3
      vertex 7.6 -3.4 0.3
    endloop
  endfacet
endsolid OpenSCAD_Model
